<mxfile host="app.diagrams.net" modified="2023-05-27T01:10:38.334Z" agent="Mozilla/5.0 (Windows NT 10.0; Win64; x64) AppleWebKit/537.36 (KHTML, like Gecko) Chrome/113.0.0.0 Safari/537.36" etag="yI1CAJuFF_eoPF1okZTM" version="21.3.4" type="github">
  <diagram name="Page-1" id="ad52d381-51e7-2e0d-a935-2d0ddd2fd229">
    <mxGraphModel dx="2333" dy="1923" grid="1" gridSize="10" guides="1" tooltips="1" connect="1" arrows="1" fold="1" page="1" pageScale="1" pageWidth="1100" pageHeight="850" background="none" math="0" shadow="0">
      <root>
        <mxCell id="0" />
        <mxCell id="1" parent="0" />
        <mxCell id="2c924340bb9dbf6c-4" value="&lt;b&gt;wasix-org/wasix-witx&lt;/b&gt;&lt;br&gt;(ABI specification)" style="ellipse;whiteSpace=wrap;html=1;rounded=1;shadow=1;comic=0;labelBackgroundColor=none;strokeWidth=2;fontFamily=Verdana;fontSize=12;align=center;" parent="1" vertex="1">
          <mxGeometry x="470" y="105" width="120" height="120" as="geometry" />
        </mxCell>
        <mxCell id="2c924340bb9dbf6c-33" value="specified-by" style="edgeStyle=none;rounded=1;html=1;labelBackgroundColor=none;startArrow=none;startFill=0;startSize=5;endArrow=classicThin;endFill=1;endSize=5;jettySize=auto;orthogonalLoop=1;strokeColor=#B3B3B3;strokeWidth=1;fontFamily=Verdana;fontSize=12;exitX=0.747;exitY=0.058;exitDx=0;exitDy=0;entryX=0;entryY=1;entryDx=0;entryDy=0;exitPerimeter=0;" parent="1" source="P7lKFxrB4OPsHLQeTu6b-1" target="2c924340bb9dbf6c-4" edge="1">
          <mxGeometry relative="1" as="geometry">
            <mxPoint x="360" y="225" as="targetPoint" />
          </mxGeometry>
        </mxCell>
        <mxCell id="P7lKFxrB4OPsHLQeTu6b-1" value="&lt;b&gt;wasix-org/wasix-libc&lt;/b&gt;&lt;br&gt;(C standard library)" style="ellipse;whiteSpace=wrap;html=1;rounded=1;shadow=1;comic=0;labelBackgroundColor=none;strokeWidth=2;fontFamily=Verdana;fontSize=12;align=center;" parent="1" vertex="1">
          <mxGeometry x="340" y="315" width="120" height="120" as="geometry" />
        </mxCell>
        <mxCell id="P7lKFxrB4OPsHLQeTu6b-2" value="&lt;b&gt;wasix-org/rust&lt;/b&gt;&lt;br&gt;(rust standard library)" style="ellipse;whiteSpace=wrap;html=1;rounded=1;shadow=1;comic=0;labelBackgroundColor=none;strokeWidth=2;fontFamily=Verdana;fontSize=12;align=center;" parent="1" vertex="1">
          <mxGeometry x="585" y="490" width="120" height="120" as="geometry" />
        </mxCell>
        <mxCell id="P7lKFxrB4OPsHLQeTu6b-3" value="depends-on" style="edgeStyle=none;rounded=1;html=1;labelBackgroundColor=none;startArrow=none;startFill=0;startSize=5;endArrow=classicThin;endFill=1;endSize=5;jettySize=auto;orthogonalLoop=1;strokeColor=#B3B3B3;strokeWidth=1;fontFamily=Verdana;fontSize=12;exitX=0;exitY=0;exitDx=0;exitDy=0;" parent="1" source="P7lKFxrB4OPsHLQeTu6b-2" target="P7lKFxrB4OPsHLQeTu6b-1" edge="1">
          <mxGeometry relative="1" as="geometry">
            <mxPoint x="502" y="186" as="sourcePoint" />
            <mxPoint x="578" y="303" as="targetPoint" />
          </mxGeometry>
        </mxCell>
        <mxCell id="P7lKFxrB4OPsHLQeTu6b-4" value="specified-by" style="edgeStyle=none;rounded=1;html=1;labelBackgroundColor=none;startArrow=none;startFill=0;startSize=5;endArrow=classicThin;endFill=1;endSize=5;jettySize=auto;orthogonalLoop=1;strokeColor=#B3B3B3;strokeWidth=1;fontFamily=Verdana;fontSize=12;exitX=0.268;exitY=0.052;exitDx=0;exitDy=0;entryX=0.723;entryY=0.948;entryDx=0;entryDy=0;entryPerimeter=0;exitPerimeter=0;" parent="1" source="7VYVy6A2ljFFl37tB03Q-1" target="2c924340bb9dbf6c-4" edge="1">
          <mxGeometry relative="1" as="geometry">
            <mxPoint x="708" y="247" as="sourcePoint" />
            <mxPoint x="660" y="185" as="targetPoint" />
          </mxGeometry>
        </mxCell>
        <mxCell id="P7lKFxrB4OPsHLQeTu6b-5" value="&lt;b&gt;wasix-org/mio&lt;/b&gt;&lt;br&gt;(non-blocking IO)" style="whiteSpace=wrap;html=1;rounded=1;shadow=1;comic=0;labelBackgroundColor=none;strokeWidth=2;fontFamily=Verdana;fontSize=12;align=center;arcSize=50;" parent="1" vertex="1">
          <mxGeometry x="855" y="570" width="140" height="60" as="geometry" />
        </mxCell>
        <mxCell id="P7lKFxrB4OPsHLQeTu6b-6" value="&lt;b&gt;wasix-org/tokio&lt;/b&gt;&lt;br&gt;(non-blocking IO platform)" style="whiteSpace=wrap;html=1;rounded=1;shadow=1;comic=0;labelBackgroundColor=none;strokeWidth=2;fontFamily=Verdana;fontSize=12;align=center;arcSize=50;" parent="1" vertex="1">
          <mxGeometry x="855" y="670" width="140" height="60" as="geometry" />
        </mxCell>
        <mxCell id="P7lKFxrB4OPsHLQeTu6b-7" value="&lt;b&gt;wasix-org/socket2&lt;/b&gt;&lt;br&gt;(socket wrapper)" style="whiteSpace=wrap;html=1;rounded=1;shadow=1;comic=0;labelBackgroundColor=none;strokeWidth=2;fontFamily=Verdana;fontSize=12;align=center;arcSize=50;" parent="1" vertex="1">
          <mxGeometry x="855" y="470" width="140" height="60" as="geometry" />
        </mxCell>
        <mxCell id="P7lKFxrB4OPsHLQeTu6b-8" value="uses" style="edgeStyle=none;rounded=1;html=1;labelBackgroundColor=none;startArrow=none;startFill=0;startSize=5;endArrow=classicThin;endFill=1;endSize=5;jettySize=auto;orthogonalLoop=1;strokeColor=#B3B3B3;strokeWidth=1;fontFamily=Verdana;fontSize=12;exitX=0;exitY=0.5;exitDx=0;exitDy=0;entryX=0.973;entryY=0.302;entryDx=0;entryDy=0;entryPerimeter=0;" parent="1" source="P7lKFxrB4OPsHLQeTu6b-7" target="P7lKFxrB4OPsHLQeTu6b-2" edge="1">
          <mxGeometry relative="1" as="geometry">
            <mxPoint x="851" y="490" as="sourcePoint" />
            <mxPoint x="825" y="334" as="targetPoint" />
          </mxGeometry>
        </mxCell>
        <mxCell id="P7lKFxrB4OPsHLQeTu6b-9" value="uses" style="edgeStyle=none;rounded=1;html=1;labelBackgroundColor=none;startArrow=none;startFill=0;startSize=5;endArrow=classicThin;endFill=1;endSize=5;jettySize=auto;orthogonalLoop=1;strokeColor=#B3B3B3;strokeWidth=1;fontFamily=Verdana;fontSize=12;exitX=0;exitY=0.5;exitDx=0;exitDy=0;entryX=0.98;entryY=0.615;entryDx=0;entryDy=0;entryPerimeter=0;" parent="1" source="P7lKFxrB4OPsHLQeTu6b-5" target="P7lKFxrB4OPsHLQeTu6b-2" edge="1">
          <mxGeometry relative="1" as="geometry">
            <mxPoint x="885" y="520" as="sourcePoint" />
            <mxPoint x="712" y="536" as="targetPoint" />
          </mxGeometry>
        </mxCell>
        <mxCell id="P7lKFxrB4OPsHLQeTu6b-10" value="uses" style="edgeStyle=none;rounded=1;html=1;labelBackgroundColor=none;startArrow=none;startFill=0;startSize=5;endArrow=classicThin;endFill=1;endSize=5;jettySize=auto;orthogonalLoop=1;strokeColor=#B3B3B3;strokeWidth=1;fontFamily=Verdana;fontSize=12;exitX=0;exitY=0.25;exitDx=0;exitDy=0;entryX=1;entryY=1;entryDx=0;entryDy=0;" parent="1" source="P7lKFxrB4OPsHLQeTu6b-6" target="P7lKFxrB4OPsHLQeTu6b-2" edge="1">
          <mxGeometry relative="1" as="geometry">
            <mxPoint x="885" y="610" as="sourcePoint" />
            <mxPoint x="713" y="574" as="targetPoint" />
          </mxGeometry>
        </mxCell>
        <mxCell id="P7lKFxrB4OPsHLQeTu6b-11" value="depends-on" style="edgeStyle=none;rounded=1;html=1;labelBackgroundColor=none;startArrow=none;startFill=0;startSize=5;endArrow=classicThin;endFill=1;endSize=5;jettySize=auto;orthogonalLoop=1;strokeColor=#B3B3B3;strokeWidth=1;fontFamily=Verdana;fontSize=12;exitX=0.5;exitY=0;exitDx=0;exitDy=0;entryX=0.5;entryY=1;entryDx=0;entryDy=0;" parent="1" source="P7lKFxrB4OPsHLQeTu6b-6" target="P7lKFxrB4OPsHLQeTu6b-5" edge="1">
          <mxGeometry relative="1" as="geometry">
            <mxPoint x="885" y="705" as="sourcePoint" />
            <mxPoint x="697" y="622" as="targetPoint" />
          </mxGeometry>
        </mxCell>
        <mxCell id="P7lKFxrB4OPsHLQeTu6b-12" value="depends-on" style="edgeStyle=none;rounded=1;html=1;labelBackgroundColor=none;startArrow=none;startFill=0;startSize=5;endArrow=classicThin;endFill=1;endSize=5;jettySize=auto;orthogonalLoop=1;strokeColor=#B3B3B3;strokeWidth=1;fontFamily=Verdana;fontSize=12;exitX=0.5;exitY=0;exitDx=0;exitDy=0;entryX=0.5;entryY=1;entryDx=0;entryDy=0;" parent="1" source="P7lKFxrB4OPsHLQeTu6b-5" target="P7lKFxrB4OPsHLQeTu6b-7" edge="1">
          <mxGeometry relative="1" as="geometry">
            <mxPoint x="955" y="670" as="sourcePoint" />
            <mxPoint x="955" y="640" as="targetPoint" />
          </mxGeometry>
        </mxCell>
        <mxCell id="P7lKFxrB4OPsHLQeTu6b-13" value="&lt;b&gt;wasix-org/static-web-server&lt;/b&gt;&lt;br&gt;(async HTTP server)" style="whiteSpace=wrap;html=1;rounded=1;shadow=1;comic=0;labelBackgroundColor=none;strokeWidth=2;fontFamily=Verdana;fontSize=12;align=center;arcSize=50;" parent="1" vertex="1">
          <mxGeometry x="645" y="810" width="140" height="60" as="geometry" />
        </mxCell>
        <mxCell id="P7lKFxrB4OPsHLQeTu6b-14" value="uses" style="edgeStyle=none;rounded=1;html=1;labelBackgroundColor=none;startArrow=none;startFill=0;startSize=5;endArrow=classicThin;endFill=1;endSize=5;jettySize=auto;orthogonalLoop=1;strokeColor=#B3B3B3;strokeWidth=1;fontFamily=Verdana;fontSize=12;exitX=0.5;exitY=0;exitDx=0;exitDy=0;" parent="1" source="P7lKFxrB4OPsHLQeTu6b-13" target="P7lKFxrB4OPsHLQeTu6b-2" edge="1">
          <mxGeometry relative="1" as="geometry">
            <mxPoint x="885" y="725" as="sourcePoint" />
            <mxPoint x="697" y="602" as="targetPoint" />
          </mxGeometry>
        </mxCell>
        <mxCell id="P7lKFxrB4OPsHLQeTu6b-15" value="depends-on" style="edgeStyle=none;rounded=1;html=1;labelBackgroundColor=none;startArrow=none;startFill=0;startSize=5;endArrow=classicThin;endFill=1;endSize=5;jettySize=auto;orthogonalLoop=1;strokeColor=#B3B3B3;strokeWidth=1;fontFamily=Verdana;fontSize=12;exitX=1;exitY=0.25;exitDx=0;exitDy=0;entryX=0;entryY=0.75;entryDx=0;entryDy=0;" parent="1" source="P7lKFxrB4OPsHLQeTu6b-13" target="P7lKFxrB4OPsHLQeTu6b-6" edge="1">
          <mxGeometry relative="1" as="geometry">
            <mxPoint x="725" y="810" as="sourcePoint" />
            <mxPoint x="655" y="620" as="targetPoint" />
          </mxGeometry>
        </mxCell>
        <mxCell id="P7lKFxrB4OPsHLQeTu6b-16" value="&lt;b&gt;wasix-org/bash&lt;/b&gt;&lt;br&gt;(born-again Shell)" style="whiteSpace=wrap;html=1;rounded=1;shadow=1;comic=0;labelBackgroundColor=none;strokeWidth=2;fontFamily=Verdana;fontSize=12;align=center;arcSize=50;" parent="1" vertex="1">
          <mxGeometry x="160" y="525" width="140" height="60" as="geometry" />
        </mxCell>
        <mxCell id="P7lKFxrB4OPsHLQeTu6b-17" value="&lt;b&gt;wasix-org/dash&lt;/b&gt;&lt;br&gt;(POSIX Shell)" style="whiteSpace=wrap;html=1;rounded=1;shadow=1;comic=0;labelBackgroundColor=none;strokeWidth=2;fontFamily=Verdana;fontSize=12;align=center;arcSize=50;" parent="1" vertex="1">
          <mxGeometry x="160" y="445" width="140" height="60" as="geometry" />
        </mxCell>
        <mxCell id="P7lKFxrB4OPsHLQeTu6b-18" value="&lt;b&gt;wasix-org/cpython&lt;/b&gt;&lt;br&gt;(Python interpreter)" style="whiteSpace=wrap;html=1;rounded=1;shadow=1;comic=0;labelBackgroundColor=none;strokeWidth=2;fontFamily=Verdana;fontSize=12;align=center;arcSize=50;" parent="1" vertex="1">
          <mxGeometry x="160" y="605" width="140" height="60" as="geometry" />
        </mxCell>
        <mxCell id="P7lKFxrB4OPsHLQeTu6b-19" value="&lt;b&gt;wasix-org/curl&lt;/b&gt;&lt;br&gt;(URL data transfers)" style="whiteSpace=wrap;html=1;rounded=1;shadow=1;comic=0;labelBackgroundColor=none;strokeWidth=2;fontFamily=Verdana;fontSize=12;align=center;arcSize=50;" parent="1" vertex="1">
          <mxGeometry x="160" y="685" width="140" height="60" as="geometry" />
        </mxCell>
        <mxCell id="P7lKFxrB4OPsHLQeTu6b-20" value="uses" style="edgeStyle=none;rounded=1;html=1;labelBackgroundColor=none;startArrow=none;startFill=0;startSize=5;endArrow=classicThin;endFill=1;endSize=5;jettySize=auto;orthogonalLoop=1;strokeColor=#B3B3B3;strokeWidth=1;fontFamily=Verdana;fontSize=12;exitX=1;exitY=0.5;exitDx=0;exitDy=0;entryX=0;entryY=1;entryDx=0;entryDy=0;" parent="1" source="P7lKFxrB4OPsHLQeTu6b-17" target="P7lKFxrB4OPsHLQeTu6b-1" edge="1">
          <mxGeometry relative="1" as="geometry">
            <mxPoint x="650" y="675" as="sourcePoint" />
            <mxPoint x="650" y="475" as="targetPoint" />
          </mxGeometry>
        </mxCell>
        <mxCell id="P7lKFxrB4OPsHLQeTu6b-21" value="uses" style="edgeStyle=none;rounded=1;html=1;labelBackgroundColor=none;startArrow=none;startFill=0;startSize=5;endArrow=classicThin;endFill=1;endSize=5;jettySize=auto;orthogonalLoop=1;strokeColor=#B3B3B3;strokeWidth=1;fontFamily=Verdana;fontSize=12;exitX=1;exitY=0.5;exitDx=0;exitDy=0;entryX=0;entryY=1;entryDx=0;entryDy=0;" parent="1" source="P7lKFxrB4OPsHLQeTu6b-16" edge="1">
          <mxGeometry relative="1" as="geometry">
            <mxPoint x="310" y="485" as="sourcePoint" />
            <mxPoint x="368" y="427" as="targetPoint" />
          </mxGeometry>
        </mxCell>
        <mxCell id="P7lKFxrB4OPsHLQeTu6b-22" value="uses" style="edgeStyle=none;rounded=1;html=1;labelBackgroundColor=none;startArrow=none;startFill=0;startSize=5;endArrow=classicThin;endFill=1;endSize=5;jettySize=auto;orthogonalLoop=1;strokeColor=#B3B3B3;strokeWidth=1;fontFamily=Verdana;fontSize=12;exitX=1;exitY=0.5;exitDx=0;exitDy=0;" parent="1" source="P7lKFxrB4OPsHLQeTu6b-18" target="P7lKFxrB4OPsHLQeTu6b-1" edge="1">
          <mxGeometry relative="1" as="geometry">
            <mxPoint x="310" y="565" as="sourcePoint" />
            <mxPoint x="378" y="437" as="targetPoint" />
          </mxGeometry>
        </mxCell>
        <mxCell id="P7lKFxrB4OPsHLQeTu6b-23" value="uses" style="edgeStyle=none;rounded=1;html=1;labelBackgroundColor=none;startArrow=none;startFill=0;startSize=5;endArrow=classicThin;endFill=1;endSize=5;jettySize=auto;orthogonalLoop=1;strokeColor=#B3B3B3;strokeWidth=1;fontFamily=Verdana;fontSize=12;exitX=1;exitY=0.5;exitDx=0;exitDy=0;entryX=0.5;entryY=1;entryDx=0;entryDy=0;" parent="1" source="P7lKFxrB4OPsHLQeTu6b-19" target="P7lKFxrB4OPsHLQeTu6b-1" edge="1">
          <mxGeometry relative="1" as="geometry">
            <mxPoint x="310" y="645" as="sourcePoint" />
            <mxPoint x="388" y="447" as="targetPoint" />
          </mxGeometry>
        </mxCell>
        <mxCell id="O6ICbiA1zce-JGe5-F6w-1" value="&lt;b&gt;wasix-org/coreutils&lt;/b&gt;&lt;br&gt;(GNU core utilities)" style="whiteSpace=wrap;html=1;rounded=1;shadow=1;comic=0;labelBackgroundColor=none;strokeWidth=2;fontFamily=Verdana;fontSize=12;align=center;arcSize=50;" parent="1" vertex="1">
          <mxGeometry x="485" y="810" width="140" height="60" as="geometry" />
        </mxCell>
        <mxCell id="O6ICbiA1zce-JGe5-F6w-2" value="uses" style="edgeStyle=none;rounded=1;html=1;labelBackgroundColor=none;startArrow=none;startFill=0;startSize=5;endArrow=classicThin;endFill=1;endSize=5;jettySize=auto;orthogonalLoop=1;strokeColor=#B3B3B3;strokeWidth=1;fontFamily=Verdana;fontSize=12;exitX=0.75;exitY=0;exitDx=0;exitDy=0;entryX=0.363;entryY=1.007;entryDx=0;entryDy=0;entryPerimeter=0;" parent="1" source="O6ICbiA1zce-JGe5-F6w-1" target="P7lKFxrB4OPsHLQeTu6b-2" edge="1">
          <mxGeometry relative="1" as="geometry">
            <mxPoint x="655" y="820" as="sourcePoint" />
            <mxPoint x="655" y="620" as="targetPoint" />
          </mxGeometry>
        </mxCell>
        <mxCell id="O6ICbiA1zce-JGe5-F6w-3" value="invokes" style="edgeStyle=none;rounded=1;html=1;labelBackgroundColor=none;startArrow=none;startFill=0;startSize=5;endArrow=classicThin;endFill=1;endSize=5;jettySize=auto;orthogonalLoop=1;strokeColor=#B3B3B3;strokeWidth=1;fontFamily=Verdana;fontSize=12;exitX=1;exitY=0.75;exitDx=0;exitDy=0;entryX=0;entryY=0.25;entryDx=0;entryDy=0;" parent="1" source="P7lKFxrB4OPsHLQeTu6b-16" target="O6ICbiA1zce-JGe5-F6w-1" edge="1">
          <mxGeometry relative="1" as="geometry">
            <mxPoint x="545" y="595" as="sourcePoint" />
            <mxPoint x="608" y="457" as="targetPoint" />
          </mxGeometry>
        </mxCell>
        <mxCell id="O6ICbiA1zce-JGe5-F6w-5" value="invokes" style="edgeStyle=none;rounded=1;html=1;labelBackgroundColor=none;startArrow=none;startFill=0;startSize=5;endArrow=classicThin;endFill=1;endSize=5;jettySize=auto;orthogonalLoop=1;strokeColor=#B3B3B3;strokeWidth=1;fontFamily=Verdana;fontSize=12;exitX=1;exitY=0.75;exitDx=0;exitDy=0;entryX=0.25;entryY=0;entryDx=0;entryDy=0;" parent="1" source="P7lKFxrB4OPsHLQeTu6b-17" target="O6ICbiA1zce-JGe5-F6w-1" edge="1">
          <mxGeometry relative="1" as="geometry">
            <mxPoint x="310" y="580" as="sourcePoint" />
            <mxPoint x="450" y="690" as="targetPoint" />
          </mxGeometry>
        </mxCell>
        <mxCell id="O6ICbiA1zce-JGe5-F6w-6" value="&lt;b&gt;WebAssembly/&lt;br&gt;WASI&lt;/b&gt;&lt;br&gt;(ABI specification)" style="ellipse;whiteSpace=wrap;html=1;rounded=1;shadow=1;comic=0;labelBackgroundColor=none;strokeWidth=2;fontFamily=Verdana;fontSize=12;align=center;" parent="1" vertex="1">
          <mxGeometry x="470" y="-80" width="120" height="120" as="geometry" />
        </mxCell>
        <mxCell id="O6ICbiA1zce-JGe5-F6w-7" value="superset-of" style="edgeStyle=none;rounded=1;html=1;labelBackgroundColor=none;startArrow=none;startFill=0;startSize=5;endArrow=classicThin;endFill=1;endSize=5;jettySize=auto;orthogonalLoop=1;strokeColor=#B3B3B3;strokeWidth=1;fontFamily=Verdana;fontSize=12;exitX=0.5;exitY=0;exitDx=0;exitDy=0;entryX=0.5;entryY=1;entryDx=0;entryDy=0;" parent="1" source="2c924340bb9dbf6c-4" target="O6ICbiA1zce-JGe5-F6w-6" edge="1">
          <mxGeometry relative="1" as="geometry">
            <mxPoint x="498" y="217" as="targetPoint" />
            <mxPoint x="440" y="332" as="sourcePoint" />
          </mxGeometry>
        </mxCell>
        <mxCell id="O6ICbiA1zce-JGe5-F6w-8" value="&lt;b&gt;WebAssembly/&lt;br&gt;&lt;/b&gt;wasi-libc&lt;br&gt;(C standard library)" style="ellipse;whiteSpace=wrap;html=1;rounded=1;shadow=1;comic=0;labelBackgroundColor=none;strokeWidth=2;fontFamily=Verdana;fontSize=12;align=center;" parent="1" vertex="1">
          <mxGeometry x="230" y="105" width="120" height="120" as="geometry" />
        </mxCell>
        <mxCell id="O6ICbiA1zce-JGe5-F6w-9" value="fork" style="edgeStyle=none;rounded=1;html=1;labelBackgroundColor=none;startArrow=none;startFill=0;startSize=5;endArrow=classicThin;endFill=1;endSize=5;jettySize=auto;orthogonalLoop=1;strokeColor=#B3B3B3;strokeWidth=1;fontFamily=Verdana;fontSize=12;entryX=0.767;entryY=0.957;entryDx=0;entryDy=0;entryPerimeter=0;" parent="1" source="P7lKFxrB4OPsHLQeTu6b-1" target="O6ICbiA1zce-JGe5-F6w-8" edge="1">
          <mxGeometry relative="1" as="geometry">
            <mxPoint x="370" y="260" as="targetPoint" />
            <mxPoint x="370" y="325" as="sourcePoint" />
          </mxGeometry>
        </mxCell>
        <mxCell id="7VYVy6A2ljFFl37tB03Q-1" value="&lt;b&gt;wasix-org/wasix-abi-rust&lt;/b&gt;&lt;br&gt;(ABI crate)" style="ellipse;whiteSpace=wrap;html=1;rounded=1;shadow=1;comic=0;labelBackgroundColor=none;strokeWidth=2;fontFamily=Verdana;fontSize=12;align=center;" vertex="1" parent="1">
          <mxGeometry x="585" y="290" width="120" height="120" as="geometry" />
        </mxCell>
        <mxCell id="7VYVy6A2ljFFl37tB03Q-2" value="depends-on" style="edgeStyle=none;rounded=1;html=1;labelBackgroundColor=none;startArrow=none;startFill=0;startSize=5;endArrow=classicThin;endFill=1;endSize=5;jettySize=auto;orthogonalLoop=1;strokeColor=#B3B3B3;strokeWidth=1;fontFamily=Verdana;fontSize=12;exitX=0.5;exitY=0;exitDx=0;exitDy=0;entryX=0.5;entryY=1;entryDx=0;entryDy=0;" edge="1" parent="1" source="P7lKFxrB4OPsHLQeTu6b-2" target="7VYVy6A2ljFFl37tB03Q-1">
          <mxGeometry relative="1" as="geometry">
            <mxPoint x="865" y="510" as="sourcePoint" />
            <mxPoint x="712" y="536" as="targetPoint" />
          </mxGeometry>
        </mxCell>
      </root>
    </mxGraphModel>
  </diagram>
</mxfile>
